<svg xmlns="http://www.w3.org/2000/svg" xmlns:xlink="http://www.w3.org/1999/xlink" width="480" zoomAndPan="magnify" viewBox="0 0 360 503.999982" height="672" preserveAspectRatio="xMidYMid meet" version="1.0"><defs><g/><clipPath id="7ae9ca50f9"><path d="M 120 175 L 214 175 L 214 334 L 120 334 Z M 120 175 " clip-rule="nonzero"/></clipPath><clipPath id="ec569821ab"><path d="M 86.089844 240.253906 L 138.839844 170.257812 L 262.492188 263.449219 L 209.742188 333.441406 Z M 86.089844 240.253906 " clip-rule="nonzero"/></clipPath><clipPath id="04c9fc8bfe"><path d="M 86.089844 240.253906 L 138.839844 170.257812 L 262.492188 263.449219 L 209.742188 333.441406 Z M 86.089844 240.253906 " clip-rule="nonzero"/></clipPath></defs><g clip-path="url(#7ae9ca50f9)"><g clip-path="url(#ec569821ab)"><g clip-path="url(#04c9fc8bfe)"><path fill="#55714b" d="M 172.425781 272.324219 C 171.246094 271.316406 170.023438 270.410156 168.683594 269.660156 C 167.5625 269.03125 166.414062 268.453125 165.414062 267.609375 C 164.332031 266.699219 163.011719 266.25 161.601562 266.117188 C 161.339844 266.089844 161.0625 266.074219 160.8125 266.128906 C 159.746094 266.363281 158.664062 266.46875 157.59375 266.632812 C 155.878906 266.898438 154.199219 267.378906 152.570312 268 C 151.46875 268.417969 150.363281 268.824219 149.261719 269.234375 C 148.621094 269.46875 147.957031 269.601562 147.28125 269.671875 C 146.203125 269.785156 145.578125 269.433594 145.148438 268.496094 C 144.730469 267.585938 144.875 266.628906 145.542969 265.960938 C 146.167969 265.335938 146.933594 265 147.800781 264.839844 C 150.621094 264.320312 153.429688 264.394531 156.214844 265.050781 C 157.121094 265.265625 157.988281 265.367188 158.90625 265.109375 C 159.667969 264.894531 160.464844 264.832031 161.320312 264.898438 C 161.261719 264.59375 161.046875 264.542969 160.882812 264.460938 C 159.910156 263.96875 158.886719 263.589844 157.859375 263.226562 C 157.164062 262.980469 156.480469 262.710938 155.8125 262.402344 C 154.613281 261.84375 153.390625 261.339844 152.164062 260.839844 C 150.484375 260.152344 149.136719 258.917969 147.777344 257.75 C 146.570312 256.714844 145.4375 255.597656 144.261719 254.527344 C 143.136719 253.5 142.402344 252.253906 142.132812 250.75 C 141.890625 249.390625 142.722656 248.652344 144.054688 249.042969 C 144.390625 249.144531 144.710938 249.300781 145.027344 249.457031 C 147.324219 250.601562 149.195312 252.300781 151.007812 254.078125 C 152.839844 255.878906 154.367188 257.941406 156.125 259.804688 C 156.347656 260.039062 156.570312 260.296875 156.699219 260.585938 C 157.070312 261.410156 157.742188 261.804688 158.5625 262.066406 C 160.765625 262.777344 162.71875 263.980469 164.695312 265.164062 C 167.230469 266.675781 169.59375 268.421875 171.917969 270.230469 C 172.121094 270.386719 172.296875 270.597656 172.585938 270.628906 C 172.703125 270.375 172.488281 270.238281 172.390625 270.082031 C 171.632812 268.859375 170.976562 267.566406 170.113281 266.40625 C 169.066406 265 167.828125 263.824219 166.328125 262.882812 C 163.789062 261.28125 162.3125 258.886719 161.539062 256.023438 C 161.359375 255.363281 161.246094 254.699219 161.355469 254.015625 C 161.578125 252.605469 162.589844 252.085938 163.871094 252.722656 C 164.609375 253.085938 165.109375 253.710938 165.585938 254.347656 C 166.203125 255.175781 166.664062 256.105469 167.136719 257.019531 C 168.363281 259.40625 169.363281 261.890625 170.328125 264.390625 C 170.433594 264.664062 170.503906 264.96875 170.675781 265.199219 C 172.171875 267.214844 173.257812 269.484375 174.636719 271.574219 C 175.164062 272.371094 175.746094 273.078125 176.527344 273.640625 C 179.140625 275.519531 181.539062 277.644531 183.757812 279.976562 C 184.382812 280.636719 184.898438 281.382812 185.558594 282.164062 C 184.910156 278.160156 184.5 274.242188 183.011719 270.539062 C 182.03125 268.105469 181.445312 265.535156 180.832031 262.988281 C 180.085938 259.898438 178.808594 257.078125 176.765625 254.648438 C 174.691406 252.179688 173.410156 249.34375 172.539062 246.277344 C 171.839844 243.816406 171.171875 241.339844 170.242188 238.945312 C 169.265625 236.433594 167.863281 234.148438 166.554688 231.8125 C 165.703125 230.296875 164.828125 228.792969 164.1875 227.171875 C 163.765625 226.101562 162.898438 225.488281 161.957031 225.011719 C 160.644531 224.347656 159.277344 223.796875 157.925781 223.207031 C 157.164062 222.875 156.378906 222.929688 155.589844 223.132812 C 154.242188 223.476562 152.980469 224.0625 151.714844 224.617188 C 149.898438 225.410156 148.015625 225.773438 146.042969 225.742188 C 144.6875 225.722656 143.335938 225.714844 141.980469 225.699219 C 141.890625 225.699219 141.800781 225.699219 141.714844 225.691406 C 141.203125 225.640625 140.691406 225.554688 140.457031 225.027344 C 140.207031 224.464844 140.441406 223.96875 140.820312 223.570312 C 142.183594 222.132812 143.851562 221.261719 145.832031 221.046875 C 146.652344 220.960938 147.46875 220.863281 148.277344 220.6875 C 150.296875 220.253906 152.316406 220.257812 154.308594 220.828125 C 156.234375 221.378906 158.128906 222.023438 159.96875 222.828125 C 160.152344 222.90625 160.332031 223.023438 160.707031 222.964844 C 159.996094 222.324219 159.378906 221.722656 158.714844 221.175781 C 155.976562 218.917969 152.976562 217.0625 149.796875 215.492188 C 146.046875 213.640625 142.230469 211.941406 138.375 210.320312 C 137.210938 209.832031 136.015625 209.699219 134.835938 210.09375 C 131.308594 211.28125 127.863281 210.808594 124.429688 209.699219 C 123.675781 209.457031 122.921875 209.203125 122.171875 208.933594 C 121.484375 208.6875 120.847656 208.34375 120.769531 207.515625 C 120.699219 206.730469 121.03125 206.121094 121.660156 205.609375 C 123.035156 204.496094 124.570312 204.285156 126.238281 204.675781 C 127.992188 205.082031 129.71875 205.570312 131.394531 206.222656 C 132.546875 206.675781 133.667969 207.199219 134.800781 207.695312 C 134.910156 207.742188 135.007812 207.824219 135.117188 207.84375 C 137.617188 208.28125 139.820312 209.507812 142.117188 210.476562 C 144.175781 211.347656 146.195312 212.308594 148.210938 213.304688 C 147.5 212.667969 147.027344 211.867188 146.578125 211.054688 C 146.246094 210.457031 145.859375 209.90625 145.417969 209.390625 C 145.089844 209 144.714844 208.710938 144.234375 208.507812 C 143.054688 208.011719 142.242188 207.0625 141.472656 206.089844 C 140.566406 204.949219 140.027344 203.605469 139.539062 202.242188 C 139.5 202.128906 139.46875 202.015625 139.445312 201.898438 C 139.289062 201.003906 139.808594 200.449219 140.703125 200.59375 C 141.507812 200.722656 142.210938 201.125 142.800781 201.660156 C 144.449219 203.15625 145.351562 205.09375 145.957031 207.1875 C 146.015625 207.382812 146.03125 207.597656 146.023438 207.800781 C 146.003906 208.144531 146.113281 208.421875 146.34375 208.683594 C 146.945312 209.371094 147.425781 210.152344 147.875 210.945312 C 148.335938 211.757812 148.945312 212.417969 149.726562 212.925781 C 152.566406 214.78125 155.199219 216.910156 157.90625 218.949219 C 158.84375 219.65625 159.785156 220.363281 160.796875 221.125 C 160.847656 220.816406 160.695312 220.679688 160.585938 220.539062 C 160.222656 220.074219 159.882812 219.589844 159.480469 219.164062 C 157.78125 217.347656 156.390625 215.304688 155.046875 213.226562 C 153.792969 211.296875 152.363281 209.5 150.863281 207.757812 C 150.054688 206.820312 149.277344 205.859375 148.601562 204.820312 C 146.949219 202.292969 144.867188 200.125 142.832031 197.914062 C 142.070312 197.085938 141.253906 196.332031 140.238281 195.816406 C 140.085938 195.738281 139.953125 195.613281 139.828125 195.488281 C 137.71875 193.363281 135.085938 192.53125 132.171875 192.386719 C 131.878906 192.375 131.582031 192.371094 131.289062 192.382812 C 129.28125 192.457031 127.46875 191.75 125.703125 190.921875 C 124.769531 190.484375 124.761719 189.726562 125.632812 189.191406 C 126.0625 188.929688 126.527344 188.75 127.023438 188.644531 C 129.382812 188.136719 131.640625 188.386719 133.816406 189.460938 C 135.21875 190.15625 136.519531 191.011719 137.890625 191.875 C 137.96875 191.628906 137.8125 191.480469 137.738281 191.324219 C 136.960938 189.769531 136.175781 188.21875 135.40625 186.664062 C 134.957031 185.761719 134.648438 184.816406 134.476562 183.816406 C 134.285156 182.714844 134.003906 181.628906 133.605469 180.578125 C 133.238281 179.609375 133.296875 178.667969 133.734375 177.75 C 134.0625 177.0625 134.394531 176.375 135 175.859375 C 135.886719 175.105469 136.71875 175.171875 137.398438 176.125 C 137.859375 176.777344 138.1875 177.507812 138.476562 178.25 C 138.847656 179.214844 139.097656 180.21875 139.175781 181.25 C 139.292969 182.898438 139.539062 184.527344 139.859375 186.148438 C 140.242188 188.085938 140.3125 190.070312 140.40625 192.035156 C 140.460938 193.183594 140.863281 194.085938 141.597656 194.882812 C 142.777344 196.160156 143.980469 197.414062 145.167969 198.679688 C 146.664062 200.265625 148.085938 201.917969 149.316406 203.722656 C 149.460938 203.933594 149.625 204.128906 149.835938 204.304688 C 149.414062 202.21875 149.0625 200.140625 148.597656 198.074219 C 148.257812 196.570312 147.515625 195.222656 147.1875 193.726562 C 146.691406 191.484375 146.058594 189.273438 145.371094 187.082031 C 144.609375 184.648438 145.398438 182.613281 146.882812 180.761719 C 147.699219 179.746094 148.945312 179.828125 149.757812 180.847656 C 150.382812 181.625 150.710938 182.542969 150.871094 183.507812 C 151.199219 185.453125 151.53125 187.402344 151.558594 189.382812 C 151.597656 192.1875 151.0625 194.882812 150.050781 197.492188 C 149.949219 197.75 149.867188 197.988281 149.949219 198.257812 C 150.480469 200.039062 150.578125 201.914062 151.058594 203.707031 C 151.625 205.800781 152.488281 207.75 153.859375 209.457031 C 154.984375 210.859375 155.976562 212.359375 156.953125 213.867188 C 157.886719 215.304688 158.890625 216.679688 160.046875 217.945312 C 161.449219 219.476562 162.5625 221.203125 163.507812 223.046875 C 164.179688 224.355469 164.828125 225.675781 165.425781 227.023438 C 166.324219 229.046875 167.40625 230.972656 168.535156 232.871094 C 170.367188 235.953125 171.75 239.222656 172.726562 242.671875 C 173.304688 244.710938 173.890625 246.75 174.609375 248.746094 C 175.390625 250.914062 176.703125 252.742188 178.164062 254.472656 C 178.402344 254.410156 178.339844 254.246094 178.328125 254.113281 C 178.0625 250.335938 177.441406 246.621094 176.296875 243.011719 C 175.253906 239.726562 174.957031 236.398438 175.394531 232.980469 C 175.585938 231.476562 175.425781 229.996094 174.890625 228.546875 C 174.261719 226.832031 173.683594 225.101562 172.671875 223.558594 C 172.394531 223.132812 172.257812 222.652344 172.144531 222.160156 C 171.917969 221.160156 171.394531 220.390625 170.414062 219.964844 C 166.929688 218.449219 164.78125 215.621094 163.03125 212.40625 C 162.777344 211.941406 162.59375 211.441406 162.472656 210.921875 C 162.320312 210.257812 162.308594 209.609375 162.902344 209.144531 C 163.484375 208.691406 164.132812 208.796875 164.742188 209.101562 C 165.535156 209.5 166.269531 210.027344 166.859375 210.679688 C 169.507812 213.59375 171.855469 216.738281 173.199219 220.480469 C 173.820312 222.222656 174.40625 223.984375 175.074219 225.710938 C 175.15625 225.925781 175.195312 226.167969 175.382812 226.34375 C 176.410156 224.84375 176.589844 223.191406 176.382812 221.464844 C 176.195312 219.917969 175.992188 218.367188 175.816406 216.820312 C 175.730469 216.085938 175.660156 215.351562 175.632812 214.617188 C 175.589844 213.476562 175.28125 212.410156 174.808594 211.386719 C 173.78125 209.160156 172.96875 206.859375 172.410156 204.472656 C 172.167969 203.429688 172.089844 202.378906 172.105469 201.3125 C 172.109375 200.898438 172.183594 200.492188 172.355469 200.113281 C 172.769531 199.207031 173.550781 199.039062 174.265625 199.714844 C 174.585938 200.015625 174.871094 200.363281 175.125 200.71875 C 176.410156 202.515625 177.089844 204.535156 177.203125 206.734375 C 177.304688 208.765625 177.296875 210.796875 176.847656 212.800781 C 176.777344 213.121094 176.78125 213.441406 176.800781 213.765625 C 176.925781 215.675781 177.089844 217.582031 177.363281 219.480469 C 177.476562 220.257812 177.539062 221.042969 177.714844 221.855469 C 178.277344 221.109375 178.867188 220.398438 179.042969 219.457031 C 179.191406 218.648438 179.316406 217.832031 179.4375 217.015625 C 179.742188 214.96875 180.125 212.90625 181.203125 211.128906 C 182.246094 209.414062 183.632812 207.949219 185.539062 207.113281 C 185.726562 207.03125 185.925781 206.960938 186.125 206.910156 C 187.503906 206.5625 188.699219 207.46875 188.722656 208.890625 C 188.742188 209.964844 188.347656 210.917969 187.738281 211.769531 C 185.820312 214.449219 183.863281 217.097656 181.578125 219.488281 C 180.292969 220.832031 179.367188 222.457031 178.367188 224.023438 C 177.746094 225 177.46875 226.015625 177.371094 227.160156 C 177.242188 228.625 177.039062 230.082031 177.058594 231.558594 C 177.066406 232.265625 176.976562 232.964844 176.675781 233.625 C 176.515625 233.976562 176.496094 234.367188 176.46875 234.75 C 176.300781 237.003906 176.464844 239.222656 177.105469 241.398438 C 177.300781 242.070312 177.484375 242.75 177.675781 243.433594 C 178.015625 243.390625 177.960938 243.132812 178 242.964844 C 178.484375 240.902344 178.921875 238.828125 179.332031 236.746094 C 179.941406 233.621094 181.015625 230.664062 183.078125 228.175781 C 184.292969 226.703125 185.449219 225.167969 186.910156 223.914062 C 187.246094 223.628906 187.585938 223.335938 187.964844 223.117188 C 189.023438 222.507812 190.097656 222.90625 190.5625 224.039062 C 190.886719 224.832031 190.722656 225.609375 190.4375 226.363281 C 190.097656 227.273438 189.628906 228.125 189.171875 228.984375 C 188.246094 230.726562 186.871094 232.113281 185.5 233.480469 C 184.105469 234.875 182.683594 236.253906 181.167969 237.507812 C 180.464844 238.089844 180.183594 238.734375 180.019531 239.5625 C 179.777344 240.773438 179.460938 241.972656 179.164062 243.171875 C 178.808594 244.617188 178.679688 246.078125 178.816406 247.558594 C 179 249.550781 179.234375 251.539062 179.429688 253.53125 C 179.589844 255.226562 180.09375 256.820312 180.808594 258.351562 C 181.449219 259.722656 181.902344 261.140625 181.988281 262.664062 C 182.019531 263.289062 182.25 263.871094 182.398438 264.472656 C 183 266.902344 183.742188 269.292969 184.605469 271.644531 C 185.15625 273.140625 185.585938 274.679688 185.757812 276.265625 C 186.328125 281.554688 187.835938 286.582031 189.882812 291.472656 C 191.234375 294.703125 192.476562 297.984375 193.777344 301.238281 C 194.300781 302.550781 194.972656 303.796875 195.632812 305.046875 C 196.90625 307.449219 197.988281 309.925781 198.832031 312.507812 C 199.574219 314.777344 200.378906 317.023438 201.480469 319.148438 C 201.609375 319.402344 201.683594 319.695312 201.9375 319.902344 C 202.109375 319.695312 201.957031 319.511719 201.90625 319.335938 C 201.578125 318.140625 201.386719 316.917969 201.207031 315.695312 C 200.917969 313.714844 200.652344 311.726562 200.300781 309.753906 C 200.085938 308.527344 199.742188 307.347656 199.261719 306.203125 C 199 305.578125 198.757812 304.949219 198.511719 304.316406 C 197.875 302.675781 197.570312 300.984375 197.589844 299.21875 C 197.605469 297.984375 197.632812 296.742188 197.488281 295.511719 C 197.125 292.351562 196.199219 289.34375 194.789062 286.503906 C 194.148438 285.214844 193.238281 284.082031 192.152344 283.105469 C 190.113281 281.257812 188.972656 278.902344 188.375 276.253906 C 188.253906 275.707031 188.144531 275.160156 188.042969 274.609375 C 187.996094 274.351562 187.960938 274.085938 187.960938 273.820312 C 187.957031 273.390625 188.066406 272.984375 188.472656 272.761719 C 188.890625 272.535156 189.277344 272.699219 189.628906 272.945312 C 190.117188 273.285156 190.511719 273.726562 190.863281 274.199219 C 191.25 274.714844 191.644531 275.242188 191.945312 275.8125 C 193.601562 278.9375 195.164062 282.117188 195.960938 285.585938 C 196.378906 287.402344 197.289062 289.023438 197.742188 290.828125 C 197.957031 289.832031 197.898438 288.84375 197.8125 287.863281 C 197.722656 286.863281 197.609375 285.871094 197.507812 284.875 C 197.425781 284.050781 197.414062 283.222656 197.542969 282.40625 C 197.902344 280.125 197.589844 277.886719 197.199219 275.648438 C 197.144531 275.328125 197.042969 275.015625 196.921875 274.71875 C 196.40625 273.464844 195.949219 272.1875 195.578125 270.886719 C 195.390625 270.242188 195.0625 269.703125 194.585938 269.246094 C 191.792969 266.574219 189.875 263.308594 188.234375 259.863281 C 187.867188 259.089844 187.59375 258.28125 187.484375 257.421875 C 187.40625 256.796875 187.445312 256.183594 187.65625 255.589844 C 188.074219 254.402344 189.304688 253.988281 190.378906 254.671875 C 190.945312 255.027344 191.316406 255.554688 191.617188 256.140625 C 192.0625 257.007812 192.359375 257.9375 192.617188 258.871094 C 193.027344 260.351562 193.550781 261.78125 194.210938 263.171875 C 195.023438 264.875 195.578125 266.683594 196.113281 268.492188 C 196.210938 268.828125 196.289062 269.191406 196.472656 269.484375 C 197.207031 270.640625 197.675781 271.90625 198.101562 273.195312 C 198.136719 273.300781 198.171875 273.417969 198.304688 273.453125 C 198.40625 273.425781 198.425781 273.335938 198.4375 273.253906 C 199.066406 268.847656 200.058594 264.511719 200.785156 260.125 C 201.238281 257.394531 201.621094 254.648438 202.328125 251.96875 C 202.398438 251.703125 202.398438 251.449219 202.351562 251.183594 C 201.65625 247.058594 202.570312 243.234375 204.527344 239.605469 C 205.160156 238.4375 205.933594 237.363281 206.75 236.316406 C 206.894531 236.128906 207.035156 235.941406 207.199219 235.769531 C 207.847656 235.078125 208.625 234.863281 209.34375 235.167969 C 210.1875 235.53125 210.738281 236.363281 210.714844 237.253906 C 210.699219 237.847656 210.546875 238.417969 210.34375 238.972656 C 209.8125 240.414062 209.390625 241.882812 209.132812 243.398438 C 208.960938 244.421875 208.574219 245.375 208.152344 246.320312 C 207.714844 247.292969 207.007812 248.050781 206.125 248.597656 C 205.230469 249.152344 204.699219 249.972656 204.199219 250.828125 C 203.570312 251.902344 203.164062 253.042969 202.953125 254.289062 C 202.378906 257.65625 201.910156 261.042969 201.164062 264.378906 C 200.667969 266.59375 200.433594 268.855469 199.894531 271.058594 C 199.867188 271.167969 199.867188 271.28125 199.835938 271.609375 C 200.835938 270.203125 201.644531 268.941406 202.023438 267.441406 C 202.257812 266.496094 202.554688 265.574219 202.890625 264.660156 C 203.765625 262.285156 205.261719 260.335938 207.074219 258.617188 C 207.652344 258.066406 208.324219 257.632812 209.078125 257.34375 C 210.296875 256.875 211.09375 257.335938 211.320312 258.625 C 211.484375 259.585938 211.320312 260.511719 210.984375 261.402344 C 210.257812 263.304688 209.324219 265.113281 208.183594 266.800781 C 207.421875 267.925781 206.441406 268.832031 205.214844 269.507812 C 203.53125 270.433594 202.125 271.746094 200.679688 273 C 199.785156 273.777344 199.429688 274.660156 199.351562 275.828125 C 199.207031 278.03125 199.003906 280.230469 198.6875 282.417969 C 198.515625 283.621094 198.585938 284.835938 198.75 286.03125 C 199.160156 289.027344 199.101562 292.019531 198.78125 295.019531 C 198.664062 296.128906 198.746094 297.238281 198.835938 298.359375 C 199.042969 297.757812 199.222656 297.140625 199.460938 296.550781 C 200.109375 294.933594 201.035156 293.460938 201.976562 292 C 202.25 291.570312 202.507812 291.164062 202.480469 290.625 C 202.375 288.519531 203.128906 286.652344 204.058594 284.816406 C 205.054688 282.851562 206.574219 281.445312 208.46875 280.375 C 209.734375 279.660156 211.082031 279.699219 212.417969 279.976562 C 213.460938 280.195312 213.890625 281.242188 213.472656 282.390625 C 213.078125 283.476562 212.46875 284.449219 211.695312 285.3125 C 209.722656 287.515625 207.597656 289.546875 205.015625 291.03125 C 203.800781 291.726562 202.972656 292.75 202.207031 293.890625 C 200.402344 296.574219 199.46875 299.472656 199.769531 302.730469 C 199.832031 303.386719 199.96875 304.007812 200.277344 304.589844 C 200.71875 305.433594 200.9375 306.335938 201.078125 307.28125 C 201.621094 310.863281 201.925781 314.488281 202.730469 318.019531 C 203.667969 322.101562 205.226562 325.9375 207.957031 329.199219 C 208.824219 330.234375 209.546875 331.394531 210.644531 332.226562 C 210.941406 332.453125 211.0625 332.832031 210.8125 333.175781 C 210.574219 333.507812 210.257812 333.351562 209.941406 333.238281 C 209.25 332.992188 208.664062 332.621094 208.265625 332.003906 C 205.835938 328.25 203.183594 324.632812 201.050781 320.6875 C 199.789062 318.347656 198.8125 315.882812 197.996094 313.359375 C 197.019531 310.347656 195.777344 307.464844 194.210938 304.714844 C 193.082031 302.738281 192.328125 300.59375 191.492188 298.484375 C 191.101562 297.5 190.78125 296.480469 190.308594 295.535156 C 189.449219 293.796875 188.632812 292.039062 187.796875 290.289062 C 187.351562 289.355469 186.949219 288.414062 186.683594 287.414062 C 185.902344 284.484375 184.238281 282.089844 182.132812 279.964844 C 181.125 278.945312 179.984375 278.140625 178.6875 277.535156 C 178.394531 277.398438 178.136719 277.199219 177.917969 276.957031 C 176.488281 275.390625 174.632812 274.511719 172.714844 273.738281 C 172.355469 273.597656 171.96875 273.527344 171.585938 273.566406 C 168.453125 273.875 165.304688 274.105469 162.273438 275.0625 C 161.34375 275.355469 160.4375 275.695312 159.542969 276.078125 C 158.515625 276.515625 157.429688 276.820312 156.367188 277.132812 C 154.832031 277.589844 153.320312 277.195312 151.957031 276.398438 C 151.355469 276.042969 150.972656 275.464844 151.019531 274.703125 C 151.066406 273.925781 151.570312 273.503906 152.21875 273.203125 C 153.164062 272.761719 154.195312 272.621094 155.203125 272.425781 C 158.472656 271.792969 161.753906 271.664062 165.03125 272.359375 C 166.515625 272.675781 167.996094 272.773438 169.5 272.527344 C 170.457031 272.371094 171.425781 272.292969 172.425781 272.324219 Z M 172.425781 272.324219 " fill-opacity="1" fill-rule="nonzero"/></g></g></g><g fill="#000000" fill-opacity="1"><g transform="translate(75.439052, 270.989627)"><g><path d="M 28.5 -49.984375 C 32.375 -49.984375 35.851562 -49.300781 38.9375 -47.9375 C 42.03125 -46.570312 44.65625 -44.734375 46.8125 -42.421875 C 48.976562 -40.109375 50.644531 -37.421875 51.8125 -34.359375 C 52.976562 -31.296875 53.5625 -28.097656 53.5625 -24.765625 C 53.5625 -21.035156 52.878906 -17.601562 51.515625 -14.46875 C 50.148438 -11.34375 48.269531 -8.660156 45.875 -6.421875 C 43.488281 -4.179688 40.71875 -2.425781 37.5625 -1.15625 C 34.40625 0.113281 31.035156 0.75 27.453125 0.75 C 23.628906 0.75 20.1875 0.0507812 17.125 -1.34375 C 14.0625 -2.738281 11.472656 -4.578125 9.359375 -6.859375 C 7.242188 -9.148438 5.613281 -11.785156 4.46875 -14.765625 C 3.332031 -17.753906 2.765625 -20.863281 2.765625 -24.09375 C 2.765625 -27.28125 3.332031 -30.425781 4.46875 -33.53125 C 5.613281 -36.644531 7.289062 -39.421875 9.5 -41.859375 C 11.71875 -44.296875 14.414062 -46.257812 17.59375 -47.75 C 20.78125 -49.238281 24.414062 -49.984375 28.5 -49.984375 Z M 28.421875 -1.859375 C 31.753906 -2.015625 34.675781 -2.773438 37.1875 -4.140625 C 39.695312 -5.503906 41.796875 -7.242188 43.484375 -9.359375 C 45.179688 -11.472656 46.441406 -13.796875 47.265625 -16.328125 C 48.085938 -18.867188 48.5 -21.382812 48.5 -23.875 C 48.5 -26.613281 48 -29.375 47 -32.15625 C 46.007812 -34.9375 44.59375 -37.457031 42.75 -39.71875 C 40.90625 -41.988281 38.703125 -43.832031 36.140625 -45.25 C 33.585938 -46.664062 30.71875 -47.375 27.53125 -47.375 C 24.445312 -47.375 21.6875 -46.6875 19.25 -45.3125 C 16.8125 -43.945312 14.734375 -42.195312 13.015625 -40.0625 C 11.296875 -37.925781 9.988281 -35.539062 9.09375 -32.90625 C 8.207031 -30.269531 7.765625 -27.679688 7.765625 -25.140625 C 7.765625 -22.410156 8.285156 -19.664062 9.328125 -16.90625 C 10.367188 -14.144531 11.804688 -11.644531 13.640625 -9.40625 C 15.484375 -7.164062 17.660156 -5.347656 20.171875 -3.953125 C 22.691406 -2.554688 25.441406 -1.859375 28.421875 -1.859375 Z M 28.421875 -1.859375 "/></g></g></g><g fill="#000000" fill-opacity="1"><g transform="translate(233.778989, 268.179908)"><g><path d="M 13.5 -0.75 L 13.875 -0.75 L 13.875 0 L 3.359375 0 L 3.359375 -0.75 L 3.734375 -0.75 C 4.078125 -0.75 4.394531 -0.894531 4.6875 -1.1875 C 4.988281 -1.488281 5.25 -1.835938 5.46875 -2.234375 C 5.695312 -2.628906 5.863281 -3.0625 5.96875 -3.53125 C 6.070312 -4.007812 6.125 -4.445312 6.125 -4.84375 L 6.125 -44.609375 C 6.125 -44.960938 6.070312 -45.363281 5.96875 -45.8125 C 5.863281 -46.257812 5.695312 -46.679688 5.46875 -47.078125 C 5.25 -47.472656 4.988281 -47.804688 4.6875 -48.078125 C 4.394531 -48.359375 4.078125 -48.5 3.734375 -48.5 L 3.359375 -48.5 L 3.359375 -49.234375 L 16.34375 -49.234375 C 21.3125 -49.234375 25.148438 -48.265625 27.859375 -46.328125 C 30.578125 -44.390625 31.9375 -41.53125 31.9375 -37.75 C 31.9375 -35.863281 31.625 -34.210938 31 -32.796875 C 30.375 -31.378906 29.539062 -30.160156 28.5 -29.140625 C 27.457031 -28.117188 26.226562 -27.296875 24.8125 -26.671875 C 23.394531 -26.046875 21.890625 -25.585938 20.296875 -25.296875 L 25.671875 -17.078125 C 26.960938 -15.085938 28.28125 -13.132812 29.625 -11.21875 C 30.96875 -9.3125 32.285156 -7.335938 33.578125 -5.296875 C 33.921875 -4.796875 34.300781 -4.269531 34.71875 -3.71875 C 35.144531 -3.175781 35.59375 -2.679688 36.0625 -2.234375 C 36.539062 -1.785156 37.039062 -1.425781 37.5625 -1.15625 C 38.082031 -0.882812 38.617188 -0.75 39.171875 -0.75 L 39.171875 0 L 35.96875 0 C 33.976562 0 32.347656 -0.484375 31.078125 -1.453125 C 29.804688 -2.421875 28.75 -3.550781 27.90625 -4.84375 C 25.664062 -8.132812 23.4375 -11.46875 21.21875 -14.84375 C 19.007812 -18.226562 16.8125 -21.5625 14.625 -24.84375 C 14.070312 -24.894531 13.484375 -24.957031 12.859375 -25.03125 C 12.242188 -25.101562 11.660156 -25.191406 11.109375 -25.296875 L 11.109375 -4.84375 C 11.109375 -4.445312 11.160156 -4.007812 11.265625 -3.53125 C 11.367188 -3.0625 11.53125 -2.628906 11.75 -2.234375 C 11.976562 -1.835938 12.226562 -1.488281 12.5 -1.1875 C 12.769531 -0.894531 13.101562 -0.75 13.5 -0.75 Z M 11.109375 -46.703125 L 11.109375 -27.75 L 11.484375 -27.75 C 11.890625 -27.707031 12.523438 -27.671875 13.390625 -27.640625 C 14.265625 -27.617188 15.347656 -27.609375 16.640625 -27.609375 C 17.679688 -27.609375 18.785156 -27.769531 19.953125 -28.09375 C 21.128906 -28.414062 22.222656 -28.960938 23.234375 -29.734375 C 24.253906 -30.503906 25.097656 -31.507812 25.765625 -32.75 C 26.441406 -34 26.78125 -35.566406 26.78125 -37.453125 C 26.78125 -39.335938 26.421875 -40.878906 25.703125 -42.078125 C 24.984375 -43.273438 23.988281 -44.21875 22.71875 -44.90625 C 21.445312 -45.601562 19.914062 -46.078125 18.125 -46.328125 C 16.332031 -46.578125 14.367188 -46.703125 12.234375 -46.703125 Z M 11.109375 -46.703125 "/></g></g></g></svg>